<svg width="143" height="143" viewBox="0 0 143 143" fill="none" xmlns="http://www.w3.org/2000/svg">
<path fill-rule="evenodd" clip-rule="evenodd" d="M143 71.5C143 110.996 110.996 143 71.5 143C32.0037 143 0 110.977 0 71.5C0 32.0225 32.0037 0 71.5 0C110.996 0 143 32.0037 143 71.5ZM25.923 43.9015C25.923 38.9504 29.9329 34.9028 34.884 34.9028H106.911C111.862 34.9028 115.91 38.9504 115.91 43.9015V97.9125C115.91 102.864 111.862 106.911 106.911 106.911H34.884C29.9329 106.911 25.8853 102.864 25.8853 97.9125L25.923 43.9015ZM70.8976 75.3969L34.884 52.8814V97.8936H106.911V52.8814L70.8976 75.3969ZM70.8976 66.3982L34.884 43.8827H106.911L70.8976 66.3982Z" fill="#C7E2F3"/>
</svg>
