<svg width="1920" height="1035" viewBox="0 0 1920 1035" fill="none" xmlns="http://www.w3.org/2000/svg">
<path d="M1920 204.176H0V1034.58H1920V204.176Z" fill="#0F4265"/>
<path d="M1920 836.477C1280.01 1125.37 639.989 547.549 0 836.477C0 585.439 0 334.401 0 83.3964C639.989 -205.497 1280.01 372.29 1920 83.3964V836.477Z" fill="#C7E2F3"/>
<path d="M1920 849.926C1280.01 1136.57 639.989 563.251 0 849.926C0 598.888 0 347.85 0 96.8455C639.989 -156.21 1280.01 450.76 1920 197.704V849.926Z" fill="#68ABD2"/>
<path d="M1920 913.801C1280.01 1330.85 639.989 496.715 0 913.801C0 636.977 0 360.186 0 83.3954C639.989 -254.112 1280.01 659.603 1920 322.095V913.801Z" fill="#0F4265"/>
</svg>
