<svg width="139" height="140" viewBox="0 0 139 140" fill="none" xmlns="http://www.w3.org/2000/svg">
<g clip-path="url(#clip0_247_51)">
<path fill-rule="evenodd" clip-rule="evenodd" d="M69.4909 0C107.874 0 138.982 32.1212 138.982 71.7723C138.982 103.471 119.088 130.358 91.4997 139.871C87.9805 140.588 86.7223 138.347 86.7223 136.419C86.7223 134.05 86.8135 126.318 86.8135 116.731C86.8135 110.046 84.5889 105.675 82.0908 103.453C97.5717 101.671 113.837 95.6106 113.837 68.0441C113.837 60.202 111.138 53.8108 106.671 48.7787C107.4 46.9605 109.77 39.6694 105.996 29.7888C105.996 29.7888 100.179 27.8604 86.9046 37.1534C81.3432 35.5556 75.3988 34.7658 69.4909 34.7291C63.583 34.7475 57.6386 35.5556 52.0954 37.1534C38.8208 27.8788 32.9858 29.7888 32.9858 29.7888C29.2113 39.6694 31.6 46.9789 32.3112 48.7787C27.862 53.8108 25.1451 60.202 25.1451 68.0441C25.1451 95.5372 41.3736 101.708 56.7998 103.508C54.8123 105.308 53.0071 108.466 52.3871 113.095C48.4303 114.931 38.3649 118.108 32.1653 107.126C32.1653 107.126 28.482 100.22 21.5165 99.7245C21.5165 99.7245 14.7333 99.6327 21.0424 104.077C21.0424 104.077 25.6009 106.281 28.7555 114.582C28.7555 114.582 32.84 127.383 52.1683 123.049C52.2048 129.054 52.2595 134.711 52.2595 136.4C52.2595 138.292 50.9831 140.514 47.5186 139.853C19.9118 130.376 0 103.471 0 71.7723C0 32.1212 31.1259 0 69.4909 0Z" fill="#C7E2F3"/>
</g>
<defs>
<clipPath id="clip0_247_51">
<rect width="139" height="140" fill="white"/>
</clipPath>
</defs>
</svg>
