<svg width="140" height="139" viewBox="0 0 140 139" fill="none" xmlns="http://www.w3.org/2000/svg">
<g clip-path="url(#clip0_247_48)">
<path d="M70 0C31.3395 0 0 31.1156 0 69.5C0 107.884 31.3395 139 70 139C108.661 139 140 107.884 140 69.5C140 31.1156 108.661 0 70 0ZM51.4862 103.731H34.7523V53.76H51.4862V103.731ZM43.1376 46.9649H43.0275C37.4128 46.9649 33.7798 43.121 33.7798 38.3298C33.7798 33.5385 37.5229 29.6946 43.2477 29.6946C48.9725 29.6946 52.4954 33.4292 52.6055 38.3298C52.6055 43.121 48.9725 46.9649 43.1376 46.9649ZM111.817 103.731H95.0826V77.0056C95.0826 70.3016 92.6606 65.7107 86.6055 65.7107C81.9817 65.7107 79.2294 68.7895 78.0183 71.7772C77.578 72.852 77.4679 74.3276 77.4679 75.8215V103.731H60.7339C60.7339 103.731 60.9541 58.4602 60.7339 53.7782H77.4679V60.8649C79.6881 57.4764 83.6514 52.6123 92.5505 52.6123C103.56 52.6123 111.817 59.7536 111.817 75.0928V103.749V103.731Z" fill="#C7E2F3"/>
</g>
<defs>
<clipPath id="clip0_247_48">
<rect width="140" height="139" fill="white"/>
</clipPath>
</defs>
</svg>
