<?xml version="1.0" encoding="UTF-8"?>
<svg id="Layer_2" data-name="Layer 2" xmlns="http://www.w3.org/2000/svg" viewBox="0 0 208.33 157.53">
  <defs>
    <style>
      .cls-1 {
        fill: #c7e2f3;
      }
    </style>
  </defs>
  <g id="Layer_6" data-name="Layer 6">
    <path class="cls-1" d="M111.52,19.04c1.29,1.66,3.29,4.47,5.03,5.01,1.65.51,2.79-1.46,3.46-3.34,1.23-3.51,1.93-7.26,1.93-11.11.04-3.05,0-8.52-3.18-9.31-2.93-.69-5.74-.03-8.5.85-1.5.47-3.2.8-4.45,2.16-1.57,1.69-1.11,4.12,0,6.45,1.57,3.28,3.55,6.51,5.7,9.3Z"/>
    <path class="cls-1" d="M128.72,23.71c1.48.37,3.75-.72,5.18-1.42,2.39-1.14,4.82-2.85,7.13-4.8,1.63-1.39,2.94-3.04,2.37-4.65-.45-1.29-1.64-2.04-2.61-2.88-1.78-1.54-3.64-3.13-5.86-3.83-2.38-.75-4.22,3.56-5.32,5.8-1.38,2.86-2.25,5.66-2.47,8.35-.12,1.45.18,3.09,1.58,3.43Z"/>
    <path class="cls-1" d="M113.28,102.21c3,4.77,5.68,9.07,10.23,12.03,4.18,2.72,9.17,4.17,14.16,4.06,9.18-.2,17.09-4.9,20.85-13.44,2.19-4.97,1.85-9.99,1.85-15.29v-19.73c0-5.12-.66-10.14-4.04-14.25-2.62-3.19-6.29-5.69-10.33-6.71l1.76,1.51c1.36,1.17,1.93,2.97,1.49,4.7-.24.96-.78,1.8-1.54,2.44-.58.48-1.28.82-2.01.98l-11.78,2.5-4.62,11.12c-.69,1.65-2.22,2.75-4.01,2.87-.1,0-.21.01-.31.01-1.67,0-3.19-.88-4.04-2.34l-6.02-10.43-12-.96c-1.78-.14-3.3-1.26-3.97-2.93-.66-1.66-.33-3.52.87-4.85h0s8.06-8.95,8.06-8.95l-1.45-6.06-14.36-24.43c-.34-.58-.97-.94-1.64-.94h-35.15c-.15,0-.28.02-.42.05-24.91.03-54.13.06-54.78.06-.79,0,3.95,8.3,4.39,8.83,3.28,3.96,7.99,6.31,12.95,7.4,3.06.67,6.13.7,9.22.98,3.03.27,6.1.16,9.11-.34.07-.01.09.07.04.1-2.36,1.31-4.51,3.36-4.93,6.02-.42,2.61,1,5.29,3.11,6.89,2.11,1.6,4.8,2.25,7.44,2.42,3.94.25,8-.35,11.97-1.26v72.28c0,1.05.85,1.91,1.91,1.91h28.57c1.05,0,1.91-.85,1.91-1.91v-53.12c0-1.05.85-1.91,1.91-1.91.68,0,1.3.35,1.65.92l8.32,13.8c3.44,5.71,6.82,11.46,10.26,17.17.73,1.21,1.46,2.41,2.19,3.61,1.05,1.73,2.11,3.45,3.19,5.16Z"/>
    <path class="cls-1" d="M208.01,150.11l-31.22-88.71c-4.04-11.48-11.4-26.74-28.6-26.74-3.07,0-6.07.5-8.89,1.42l.58-5.47c.19-1.78-.64-3.48-2.15-4.44-1.51-.96-3.4-.97-4.93-.04l-10.27,6.28-11-4.9c-1.64-.73-3.51-.47-4.88.67-1.38,1.14-1.97,2.94-1.56,4.68l1.35,5.65,1.45,6.06-8.06,8.95h0c-1.2,1.33-1.53,3.19-.87,4.85.66,1.66,2.18,2.78,3.97,2.93l12,.96,6.02,10.43c.84,1.46,2.37,2.34,4.04,2.34.1,0,.21,0,.31-.01,1.79-.12,3.32-1.22,4.01-2.87l4.62-11.12,11.78-2.5c.74-.16,1.43-.49,2.01-.98.76-.64,1.3-1.48,1.54-2.44.44-1.73-.13-3.54-1.49-4.7l-1.76-1.51-7.39-6.32.31-2.91c2.9-1.13,6.04-1.74,9.27-1.74,14.95,0,21.49,13.13,25.52,24.56l31.22,88.71c.25.71.14,1.48-.29,2.1-.44.62-1.12.97-1.88.97h-25.86c-1.01,0-1.89-.65-2.2-1.61l-2.69-8.43c-.74-2.32-2.87-3.88-5.31-3.88h-37.42c-2.44,0-4.57,1.56-5.31,3.88l-2.69,8.43c-.31.96-1.19,1.61-2.2,1.61h-25.86c-.76,0-1.44-.35-1.88-.97s-.55-1.38-.3-2.09l19.05-54.15c-.73-1.2-1.46-2.41-2.19-3.61l-19.94,56.67c-.6,1.7-.33,3.6.71,5.07,1.04,1.47,2.74,2.35,4.55,2.35h25.86c2.44,0,4.57-1.56,5.31-3.88l2.69-8.43c.31-.96,1.19-1.61,2.2-1.61h37.42c1.01,0,1.89.65,2.2,1.61l2.69,8.43c.74,2.32,2.87,3.88,5.31,3.88h25.86c1.8,0,3.5-.88,4.55-2.35,1.04-1.47,1.31-3.37.71-5.07ZM145.65,52.88c.4.35.58.9.45,1.41-.07.29-.23.54-.46.73-.18.15-.38.25-.61.29l-13.46,2.86-5.28,12.71c-.21.5-.67.83-1.21.86-.53.04-1.04-.23-1.31-.7l-6.88-11.92-13.72-1.09c-.53-.04-1-.39-1.19-.88-.2-.5-.1-1.06.26-1.46l9.21-10.22-3.2-13.38c-.12-.52.05-1.06.47-1.41.41-.34.98-.42,1.47-.2l12.57,5.6,11.74-7.18c.45-.28,1.03-.27,1.48.01.46.29.7.8.65,1.33l-1.44,13.68,10.45,8.94Z"/>
  </g>
</svg>