<svg width="414" height="205" viewBox="0 0 414 205" fill="none" xmlns="http://www.w3.org/2000/svg">
<path d="M363.242 187.663C348.964 186.545 347.359 187.618 342.941 201.242C344.058 186.964 342.985 185.359 329.361 180.94C343.64 182.058 345.245 180.985 349.663 167.361C348.545 181.64 349.619 183.244 363.242 187.663Z" fill="#68ABD2"/>
<path d="M69.1031 47.6551C69.1106 46.3072 68.3582 45.077 67.1628 44.4778L53.8238 37.7897L51.7516 22.9019C51.565 21.5682 50.6452 20.4581 49.378 20.0394C48.1092 19.6191 46.714 19.9633 45.7755 20.9268L35.3115 31.6698L20.6248 29.0929C19.3089 28.8627 17.975 29.4048 17.1856 30.4931C16.3947 31.5798 16.2838 33.0255 16.9001 34.2196L23.772 47.5471L16.7647 60.8396C16.137 62.0311 16.2324 63.4751 17.0127 64.5677C17.7931 65.6603 19.1193 66.2086 20.4388 65.9843L35.1502 63.4783L45.5066 74.2723C45.9098 74.6924 46.4012 74.9959 46.9297 75.1711C47.6205 75.3999 48.3789 75.4094 49.0997 75.1764C50.3732 74.7638 51.304 73.6574 51.502 72.3262L53.7217 57.4499L67.13 50.8265C68.3311 50.2328 69.0957 49.0061 69.1031 47.6582L69.1031 47.6551Z" fill="#68ABD2"/>
<path d="M382.976 40.6457C382.344 40.0229 381.418 39.8125 380.587 40.1008L371.306 43.3168L363.335 37.4542C362.62 36.9294 361.675 36.853 360.895 37.2581C360.114 37.6632 359.635 38.4791 359.658 39.3642L359.916 49.2328L351.954 54.9729C351.241 55.4875 350.884 56.3654 351.034 57.2375C351.183 58.1096 351.814 58.826 352.66 59.0841L362.1 61.9671L365.147 71.3773C365.421 72.2206 366.145 72.839 367.019 72.9731C367.892 73.1071 368.76 72.7338 369.261 72.0087L374.838 63.9218L384.684 63.9982C385.067 64.0011 385.436 63.9088 385.762 63.7402C386.187 63.5196 386.54 63.1664 386.761 62.7196C387.152 61.9296 387.058 60.9826 386.521 60.2777L380.527 52.3969L383.565 43.0328C383.837 42.1939 383.61 41.2698 382.978 40.6471L382.976 40.6457Z" fill="#68ABD2"/>
<path d="M407.573 149.609C407.109 148.664 406.155 148.066 405.111 148.063L393.457 148.029L386.827 138.341C386.233 137.473 385.203 137.017 384.172 137.165C383.138 137.313 382.283 138.039 381.962 139.04L378.384 150.192L367.219 153.501C366.219 153.798 365.475 154.642 365.301 155.677C365.127 156.712 365.552 157.762 366.399 158.382L375.841 165.309L375.568 177.041C375.543 178.093 376.113 179.069 377.038 179.561C377.964 180.054 379.082 179.976 379.927 179.36L389.34 172.488L400.338 176.431C400.766 176.584 401.215 176.625 401.645 176.564C402.208 176.484 402.742 176.226 403.165 175.813C403.911 175.081 404.177 173.983 403.852 172.984L400.227 161.81L407.297 152.513C407.93 151.68 408.038 150.557 407.574 149.612L407.573 149.609Z" fill="#C7E2F3"/>
<circle cx="129.5" cy="4.5" r="4.5" fill="#C7E2F3"/>
<circle cx="373.5" cy="85.5" r="4.5" fill="#C7E2F3"/>
<circle cx="306.5" cy="179.5" r="4.5" fill="#C7E2F3"/>
<path d="M62.0448 165.063C47.2542 174.326 46.4616 176.54 52.0172 193.084C42.7549 178.293 40.5401 177.501 23.9965 183.056C38.7872 173.794 39.5798 171.579 34.0241 155.036C43.2864 169.826 45.5013 170.619 62.0448 165.063Z" fill="#68ABD2"/>
<circle cx="35.5" cy="91.5" r="4.5" fill="#C7E2F3"/>
<path d="M143.99 37.0137C123.05 43.6353 121.387 46.0838 122.94 67.9902C116.318 47.0508 113.87 45.3869 91.9632 46.9401C112.903 40.3185 114.567 37.87 113.013 15.9635C119.635 36.903 122.083 38.5668 143.99 37.0137Z" fill="#C7E2F3"/>
</svg>
